<svg width="411" height="405" viewBox="0 0 411 405" fill="none" xmlns="http://www.w3.org/2000/svg">
<path d="M89.1582 63.7368C52.1302 106.747 37.9335 163.761 48.1849 217.54C48.3466 218.316 48.5083 219.125 48.6376 219.933C54.782 248.941 73.3122 279.437 111.052 292.243C116.42 294.054 121.4 295.315 126.186 296.124C126.348 296.124 126.51 296.188 126.639 296.221C128.159 296.479 129.646 296.674 131.102 296.868C132.783 297.062 134.465 297.223 136.082 297.32C136.373 297.32 136.664 297.32 136.955 297.385C158.751 298.387 174.597 290.723 191.705 290.141C195.941 290.012 200.242 290.303 204.737 291.241C230.899 296.803 240.31 313.166 254.636 329.109C265.567 341.301 282.027 347.219 297.485 346.896H297.711C298.261 346.896 298.811 346.896 299.393 346.831C305.796 346.475 311.973 345.085 317.503 342.595C319.184 341.657 320.866 340.654 322.515 339.717C288.948 379.138 238.952 404.2 183.103 404.2C81.9466 404.136 0 322.157 0 221.001C0.0323389 154.189 35.7668 95.7522 89.1582 63.7368Z" fill="#FF4CD2"/>
<path d="M110.308 42.8461C187.759 -22.155 303.209 -12.0653 368.178 65.4186C433.147 142.935 423.057 258.417 345.605 323.45C337.65 330.144 329.468 335.577 320.866 340.59C355.372 296.092 368.307 179.801 309.677 97.6605C272.39 45.4009 191.446 42.0053 150.182 109.788C119.33 160.495 101.512 199.884 48.767 219.675C48.7023 219.772 48.6377 219.804 48.6053 219.901C48.4436 219.125 48.2819 218.317 48.1202 217.508C36.1549 154.48 57.6602 86.9563 110.276 42.8138H110.34L110.308 42.8461Z" fill="#644DFF"/>
<path d="M150.182 109.82C191.446 42.0056 272.358 45.4335 309.677 97.6931C368.275 179.834 355.372 296.092 320.866 340.623C319.734 341.269 318.603 341.948 317.471 342.563C298.132 351.23 270.547 346.864 254.636 329.11C240.375 313.167 230.9 296.836 204.737 291.241C175.503 285.032 154.354 307.022 111.019 292.308C73.28 279.502 54.7822 249.007 48.6055 219.999C48.6702 219.902 48.7349 219.837 48.7672 219.772C101.48 199.949 119.331 160.56 150.182 109.885V109.82ZM218.32 192.317C217.059 185.396 204.479 188.824 203.929 196.294C201.374 231.511 255.348 257.318 281.801 232.32C285.164 228.504 278.47 216.441 272.714 220.775C252.761 235.909 222.783 217.444 218.287 192.317H218.32ZM270.838 154.609C264.532 133.719 255.995 119.554 242.865 123.596C229.25 127.768 232.452 143.323 238.758 164.214C245.064 185.105 251.532 200.369 264.241 197.62C277.371 194.774 277.144 175.5 270.838 154.609ZM312.491 144.358C305.99 125.052 295.06 109.141 284.356 114.38C274.654 119.134 279.925 133.072 286.425 152.346C292.926 171.652 298.326 186.205 308.836 184.102C318.829 182.097 318.958 163.632 312.491 144.326V144.358Z" fill="white"/>
<path d="M270.838 154.61C277.144 175.501 277.37 194.775 264.241 197.653C251.532 200.434 245.064 185.17 238.758 164.247C232.452 143.356 229.25 127.801 242.865 123.629C255.994 119.587 264.532 133.719 270.838 154.642V154.61Z" fill="#644DFF"/>
<path d="M312.49 144.358C318.99 163.664 318.829 182.13 308.836 184.135C298.326 186.237 292.925 171.684 286.425 152.378C279.925 133.072 274.654 119.134 284.356 114.412C295.06 109.173 305.99 125.052 312.49 144.39V144.358Z" fill="#644DFF"/>
<path d="M203.961 196.262C204.511 188.792 217.091 185.364 218.352 192.284C222.879 217.444 252.825 235.91 272.778 220.743C278.534 216.409 285.229 228.439 281.865 232.288C255.38 257.286 201.374 231.479 203.993 196.262H203.961Z" fill="#644DFF"/>
</svg>
